HIERARCHY
ROOT Hips
{
	OFFSET 0.00000 0.00000 0.00000
	CHANNELS 6 Xposition Yposition Zposition Zrotation Yrotation Xrotation 
	JOINT LHipJoint
	{
		OFFSET 0 0 0
		CHANNELS 3 Zrotation Yrotation Xrotation
		JOINT LeftUpLeg
		{
			OFFSET 1.55020 -1.87941 0.79896
			CHANNELS 3 Zrotation Yrotation Xrotation
			JOINT LeftLeg
			{
				OFFSET 2.65269 -7.28822 0.00000
				CHANNELS 3 Zrotation Yrotation Xrotation
				JOINT LeftFoot
				{
					OFFSET 2.61200 -7.17641 0.00000
					CHANNELS 3 Zrotation Yrotation Xrotation
					JOINT LeftToeBase
					{
						OFFSET 0.09338 -0.25656 1.92461
						CHANNELS 3 Zrotation Yrotation Xrotation
						End Site
						{
							OFFSET 0.00000 -0.00000 0.98480
						}
					}
				}
			}
		}
	}
	JOINT RHipJoint
	{
		OFFSET 0 0 0
		CHANNELS 3 Zrotation Yrotation Xrotation
		JOINT RightUpLeg
		{
			OFFSET -1.56866 -1.87941 0.79895
			CHANNELS 3 Zrotation Yrotation Xrotation
			JOINT RightLeg
			{
				OFFSET -2.60199 -7.14892 0.00000
				CHANNELS 3 Zrotation Yrotation Xrotation
				JOINT RightFoot
				{
					OFFSET -2.62841 -7.22151 0.00000
					CHANNELS 3 Zrotation Yrotation Xrotation
					JOINT RightToeBase
					{
						OFFSET -0.19532 -0.53663 1.93132
						CHANNELS 3 Zrotation Yrotation Xrotation
						End Site
						{
							OFFSET -0.00000 -0.00000 1.00896
						}
					}
				}
			}
		}
	}
	JOINT LowerBack
	{
		OFFSET 0 0 0
		CHANNELS 3 Zrotation Yrotation Xrotation
		JOINT Spine
		{
			OFFSET 0.06381 2.07806 -0.22112
			CHANNELS 3 Zrotation Yrotation Xrotation
			JOINT Spine1
			{
				OFFSET -0.02881 2.08890 0.01825
				CHANNELS 3 Zrotation Yrotation Xrotation
				JOINT Neck
				{
					OFFSET 0 0 0
					CHANNELS 3 Zrotation Yrotation Xrotation
					JOINT Neck1
					{
						OFFSET 0.02418 1.74325 -0.02023
						CHANNELS 3 Zrotation Yrotation Xrotation
						JOINT Head
						{
							OFFSET -0.01704 1.71677 0.04090
							CHANNELS 3 Zrotation Yrotation Xrotation
							End Site
							{
								OFFSET -0.00946 1.78238 0.01684
							}
						}
					}
				}
				JOINT LeftShoulder
				{
					OFFSET 0 0 0
					CHANNELS 3 Zrotation Yrotation Xrotation
					JOINT LeftArm
					{
						OFFSET 3.39783 1.34157 0.16610
						CHANNELS 3 Zrotation Yrotation Xrotation
						JOINT LeftForeArm
						{
							OFFSET 5.15218 -0.00000 0.00000
							CHANNELS 3 Zrotation Yrotation Xrotation
							JOINT LeftHand
							{
								OFFSET 3.49459 -0.00000 0.00000
								CHANNELS 3 Zrotation Yrotation Xrotation
								JOINT LeftFingerBase
								{
									OFFSET 0 0 0
									CHANNELS 3 Zrotation Yrotation Xrotation
									JOINT LeftHandIndex1
									{
										OFFSET 0.51247 -0.00000 0.00000
										CHANNELS 3 Zrotation Yrotation Xrotation
										End Site
										{
											OFFSET 0.41316 -0.00000 0.00000
										}
									}
								}
								JOINT LThumb
								{
									OFFSET 0 0 0
									CHANNELS 3 Zrotation Yrotation Xrotation
									End Site
									{
										OFFSET 0.41947 -0.00000 0.41947
									}
								}
							}
						}
					}
				}
				JOINT RightShoulder
				{
					OFFSET 0 0 0
					CHANNELS 3 Zrotation Yrotation Xrotation
					JOINT RightArm
					{
						OFFSET -3.26224 1.05509 0.01188
						CHANNELS 3 Zrotation Yrotation Xrotation
						JOINT RightForeArm
						{
							OFFSET -5.44344 -0.00000 0.00000
							CHANNELS 3 Zrotation Yrotation Xrotation
							JOINT RightHand
							{
								OFFSET -3.58403 -0.00000 0.00000
								CHANNELS 3 Zrotation Yrotation Xrotation
								JOINT RightFingerBase
								{
									OFFSET 0 0 0
									CHANNELS 3 Zrotation Yrotation Xrotation
									JOINT RightHandIndex1
									{
										OFFSET -0.34249 -0.00000 0.00000
										CHANNELS 3 Zrotation Yrotation Xrotation
										End Site
										{
											OFFSET -0.27612 -0.00000 0.00000
										}
									}
								}
								JOINT RThumb
								{
									OFFSET 0 0 0
									CHANNELS 3 Zrotation Yrotation Xrotation
									End Site
									{
										OFFSET -0.28034 -0.00000 0.28034
									}
								}
							}
						}
					}
				}
			}
		}
	}
}
MOTION
Frames: 13
Frame Time: .0083333
-1.1155 18.0116 -1.1819 0 0 0 0 0 0 -21 0 0 0 0 0 0 0 0 0 0 0 0 0 0 21 0 0 0 0 0 0 0 0 0 0 0 0 0 0 0 0 0 0 0 0 0 0 -16 0 0 21 0 0 11 0 0 0 -8 0 0 0 0 0 0 0 0 0 0 0 0 0 0 0 0 0 0 0 0 8 0 0 0 0 0 0 0 0 0 0 0 0 0 0 0 0 0
-1.1155 18.0116 -1.1819 -19.3678 -81.4298 23.2783 0.0000 0.0000 0.0000 -21.2499 -11.6114 -11.9450 3.0166 10.7218 31.3474 0.3637 -12.5864 -13.0270 1.0501 -6.5164 -18.2904 0.0000 0.0000 0.0000 24.2503 -1.2595 -14.7987 -2.2456 -9.3599 26.9276 -1.0268 3.4977 -18.3007 -0.6906 5.3125 -14.8021 6.4246 2.3648 7.8681 0.3561 3.6616 1.1587 -3.5924 1.7437 -2.8233 -1.0676 -3.9859 3.0171 0.6044 -5.5413 9.5542 0.2941 -2.8373 2.5523 0.0000 -0.0000 0.0000 -53.0088 23.4031 -22.4760 164.3930 -24.9849 -116.5217 -0.0000 0.0000 -1.2238 -5.4432 -3.3201 0.3162 -7.1250 0.0000 -0.0000 -23.8213 26.3579 11.7530 0.0000 -0.0000 0.0000 76.7315 2.5115 37.8224 -63.0045 57.0588 -36.8521 0.0000 0.0000 19.4366 -34.3264 -26.2636 16.8123 7.1250 -0.0000 -0.0000 -5.3339 -60.7596 2.0522
-1.0500 17.9822 -1.1588 -19.9015 -81.2305 23.9037 0.0000 0.0000 0.0000 -21.1305 -12.7323 -12.5880 3.3079 11.1775 32.8808 0.3795 -13.7407 -13.7152 1.3086 -7.2465 -20.4477 0.0000 0.0000 0.0000 24.2451 -0.5738 -15.5774 -2.4451 -9.7375 28.1307 -1.0544 3.1429 -18.6115 -0.6765 5.2592 -14.6493 6.6261 2.2121 8.2400 0.6132 3.4966 1.3391 -3.4371 1.6590 -2.8640 -1.2403 -3.9284 2.9771 0.3668 -5.4365 9.2564 0.2527 -2.7932 2.4563 -0.0000 -0.0000 0.0000 -53.5776 23.3431 -23.0602 164.4580 -24.8957 -116.5491 -0.0000 0.0000 -1.3211 -5.3546 -3.1819 0.2981 -7.1250 0.0000 -0.0000 -23.7879 26.4878 11.6528 -0.0000 -0.0000 0.0000 76.0948 3.2016 37.9585 -63.7109 57.2203 -37.4454 0.0000 0.0000 18.9267 -34.1207 -26.1650 16.6352 7.1250 -0.0000 -0.0000 -5.0998 -60.5954 1.9419
-0.9738 17.9452 -1.1337 -20.2965 -81.1175 24.3189 0.0000 0.0000 0.0000 -21.0702 -13.7511 -13.5359 3.7150 11.7712 34.9272 0.2631 -15.0855 -13.2879 1.3251 -7.2900 -20.5774 0.0000 0.0000 0.0000 24.1453 0.1840 -16.5002 -2.7227 -10.2320 29.7312 -1.0929 2.7778 -19.0279 -0.6954 5.3307 -14.8542 6.7824 2.0252 8.8381 0.8501 3.3003 1.5180 -3.2839 1.5537 -3.0359 -1.4505 -3.8068 2.9754 0.2146 -5.2550 8.9362 0.2465 -2.7097 2.3497 -0.0000 -0.0000 0.0000 -54.0753 23.4618 -23.8303 164.5782 -24.7304 -116.5996 -0.0000 0.0000 -1.5465 -5.1746 -2.9546 0.2675 -7.1250 0.0000 -0.0000 -23.7085 26.7024 11.4739 -0.0000 -0.0000 0.0000 75.4548 4.0675 38.2028 -64.1714 57.3227 -37.8328 0.0000 0.0000 18.3191 -33.9827 -26.2082 16.5779 7.1250 -0.0000 -0.0000 -4.9191 -60.6074 1.8743
-0.8844 17.8982 -1.1031 -21.1006 -81.1687 25.0531 0.0000 0.0000 0.0000 -21.0780 -14.3999 -14.5848 4.1337 12.3362 36.9321 0.0605 -15.9990 -11.8590 1.1766 -6.8846 -19.3739 0.0000 0.0000 0.0000 23.9870 0.9991 -17.4163 -3.0347 -10.7511 31.4450 -1.1275 2.4926 -19.3954 -0.7476 5.5229 -15.4063 7.0295 1.9508 9.6506 1.0107 3.2752 1.7447 -3.2843 1.5306 -3.2478 -1.5329 -3.7810 3.0752 0.1679 -5.2054 8.3920 0.2554 -2.6825 2.1531 -0.0000 0.0000 0.0000 -54.2691 23.3993 -24.4280 164.7071 -24.5526 -116.6533 -0.0000 0.0000 -1.8679 -4.7398 -2.5178 0.2087 -7.1250 0.0000 -0.0000 -23.4926 27.1184 11.0957 -0.0000 0.0000 0.0000 74.9204 5.0071 38.1630 -64.4196 57.3770 -38.0418 0.0000 0.0000 17.5508 -34.1143 -26.2377 16.6721 7.1250 -0.0000 -0.0000 -5.0757 -60.6750 1.9423
-0.7859 17.8350 -1.0649 -24.4406 -81.4285 28.1454 0.0000 0.0000 0.0000 -20.8695 -14.4658 -15.6851 4.5827 12.8978 38.9872 -0.0628 -16.1085 -10.6567 1.0597 -6.5452 -18.3748 0.0000 0.0000 0.0000 24.0441 2.0228 -18.3143 -3.4278 -11.3573 33.4947 -1.1702 2.5223 -19.7660 -0.7370 5.4844 -15.2955 7.6106 1.9904 10.6854 1.1920 3.4515 2.0601 -3.4797 1.6030 -3.4466 -1.4781 -3.8351 3.1119 0.0377 -5.2548 7.8164 0.2136 -2.7012 1.9534 0.0000 -0.0000 0.0000 -54.2236 23.2574 -25.0165 164.8549 -24.3478 -116.7145 -0.0000 0.0000 -2.3994 -4.1772 -1.9740 0.1441 -7.1250 0.0000 -0.0000 -23.2063 27.6378 10.6226 0.0000 -0.0000 0.0000 74.4536 6.0081 37.9046 -64.4509 57.3838 -38.0682 0.0000 0.0000 16.7241 -34.3177 -26.1232 16.7284 7.1250 -0.0000 -0.0000 -5.3536 -60.6006 2.0395
-0.6821 17.7469 -1.0273 -29.7460 -81.8247 33.0758 0.0000 0.0000 0.0000 -20.4896 -14.2253 -16.7975 5.0284 13.4157 40.9453 -0.0214 -15.1697 -10.4174 0.7699 -5.6027 -15.6360 0.0000 0.0000 0.0000 24.2214 3.2345 -19.2700 -3.9209 -12.0545 35.9249 -1.1898 2.7578 -19.8892 -0.6969 5.3362 -14.8700 8.2229 2.0705 11.8977 1.4202 3.7090 2.4077 -3.6646 1.7108 -3.6940 -1.4107 -3.8459 3.0310 -0.1321 -5.2464 7.3823 0.1540 -2.6925 1.8194 0.0000 0.0000 0.0000 -53.9320 23.2760 -25.9492 165.0407 -24.0894 -116.7907 -0.0000 0.0000 -3.4204 -3.5945 -1.2456 0.0782 -7.1250 0.0000 -0.0000 -22.9417 28.3291 10.0679 0.0000 0.0000 0.0000 74.0867 7.0219 37.6304 -64.2058 57.3303 -37.8618 0.0000 0.0000 15.8175 -34.4550 -26.3009 16.9099 7.1250 -0.0000 -0.0000 -5.4863 -60.8353 2.1208
-0.5798 17.6462 -0.9914 -35.6043 -82.2612 38.4956 0.0000 0.0000 0.0000 -20.1273 -13.8626 -17.9251 5.4450 13.8681 42.7114 0.1293 -13.7631 -11.1547 0.6023 -4.9680 -13.8172 0.0000 0.0000 0.0000 24.3152 4.3424 -20.4170 -4.5287 -12.8326 38.7449 -1.1889 3.1411 -19.8087 -0.7734 5.6151 -15.6717 8.6840 2.1592 13.1412 1.6205 3.9690 2.7833 -3.8007 1.8202 -3.9283 -1.4482 -3.7936 2.9970 -0.1168 -5.1668 6.8882 0.1713 -2.6473 1.6671 -0.0000 -0.0000 0.0000 -53.2649 23.3646 -27.1947 165.1916 -23.8785 -116.8520 -0.0000 0.0000 -4.8155 -3.0300 -0.3287 0.0174 -7.1250 0.0000 -0.0000 -22.7288 29.1958 9.4458 -0.0000 -0.0000 0.0000 73.8991 7.9989 37.3269 -63.7310 57.2249 -37.4623 0.0000 0.0000 14.8013 -34.6364 -26.5581 17.1637 7.1250 -0.0000 -0.0000 -5.6584 -61.1709 2.2327
-0.4827 17.5341 -0.9555 -43.2075 -82.8090 45.6727 0.0000 0.0000 0.0000 -19.8105 -13.1376 -19.0165 5.8302 14.2617 44.2963 0.0840 -14.5886 -11.1767 0.2141 -2.9789 -8.2201 0.0000 0.0000 0.0000 24.3624 5.3867 -21.8417 -5.2598 -13.6705 41.9333 -1.2232 3.8407 -19.9880 -0.8948 6.0292 -16.8692 9.0862 2.3219 14.3271 1.7635 4.3175 3.1587 -3.9797 1.9746 -4.1109 -1.4759 -3.7539 3.0572 -0.0561 -5.1070 6.2778 0.2039 -2.6104 1.4642 0.0000 -0.0000 0.0000 -52.2271 23.4977 -28.5499 165.2693 -23.7696 -116.8834 -0.0000 0.0000 -6.3635 -2.3972 0.6353 -0.0266 -7.1250 0.0000 -0.0000 -22.4758 30.1110 8.7877 0.0000 -0.0000 0.0000 73.9019 8.8807 36.9656 -63.0499 57.0693 -36.8901 0.0000 0.0000 13.7524 -34.7249 -26.6325 17.2591 7.1250 -0.0000 -0.0000 -5.7540 -61.2780 2.2852
-0.3874 17.4094 -0.9178 -50.7789 -83.5080 53.0363 0.0000 0.0000 0.0000 -19.8894 -12.2699 -20.1249 6.2042 14.6234 45.7959 0.1749 -14.9213 -12.3296 0.1739 -2.6863 -7.4065 0.0000 0.0000 0.0000 23.9739 6.4158 -23.7041 -6.0968 -14.5215 45.3690 -1.1904 4.2722 -19.6499 -1.4224 7.5421 -21.3317 9.2230 2.5678 15.3362 1.7736 4.7319 3.4144 -4.1637 2.1621 -4.3193 -1.3695 -3.7688 3.1910 -0.1433 -5.1139 5.6524 0.1705 -2.6064 1.2386 -0.0000 0.0000 0.0000 -50.7933 23.6465 -29.9474 165.3027 -23.7227 -116.8969 -0.0000 0.0000 -8.2487 -1.8858 1.7756 -0.0585 -7.1250 0.0000 -0.0000 -22.3531 31.1872 8.1040 -0.0000 0.0000 0.0000 74.1157 9.4850 36.4184 -62.1711 56.8613 -36.1534 0.0000 0.0000 12.6746 -35.1490 -26.4025 17.3848 7.1250 -0.0000 -0.0000 -6.3387 -61.1341 2.4968
-0.2950 17.2845 -0.8792 -55.4469 -84.4025 57.7575 0.0000 0.0000 0.0000 -20.5566 -11.6661 -21.3908 6.5890 14.9758 47.3022 0.3263 -14.8411 -13.7548 0.1864 -2.7808 -7.6691 0.0000 0.0000 0.0000 22.8657 7.2325 -25.9741 -7.0035 -15.3349 48.8876 -1.1879 5.5416 -19.5108 -1.4129 7.5178 -21.2589 8.8823 2.8162 16.0367 1.6218 5.0512 3.5532 -4.2316 2.3104 -4.5230 -1.3035 -3.7610 3.3927 -0.2252 -5.0957 5.0867 0.1462 -2.5916 1.0239 0.0000 -0.0000 0.0000 -49.0400 23.6962 -31.4428 165.2478 -23.7998 -116.8747 -0.0000 0.0000 -10.4346 -1.7795 2.9909 -0.0929 -7.1250 0.0000 -0.0000 -22.5593 32.3160 7.5223 0.0000 -0.0000 0.0000 74.5975 9.8398 35.7206 -60.7609 56.5093 -34.9750 0.0000 0.0000 11.7173 -36.1209 -25.7564 17.5948 7.1250 -0.0000 -0.0000 -7.6826 -60.6663 2.9440
-0.2035 17.1667 -0.8476 -60.0336 -85.2453 62.5708 0.0000 0.0000 0.0000 -21.2055 -11.3349 -22.9048 6.9816 15.3164 48.8049 0.4806 -14.4587 -14.9807 0.2247 -3.0515 -8.4221 0.0000 0.0000 0.0000 21.6516 7.9224 -28.4058 -7.9259 -16.0645 52.2955 -1.2066 6.9340 -19.6232 -1.4569 7.6291 -21.5932 8.3697 3.0146 16.5070 1.4696 5.2581 3.6120 -4.1770 2.4065 -4.7203 -1.3659 -3.6587 3.5985 -0.3119 -4.9585 4.6548 0.1394 -2.5210 0.8545 -0.0000 0.0000 0.0000 -47.3261 23.7148 -32.9706 165.0953 -24.0133 -116.8129 -0.0000 0.0000 -12.4596 -1.8103 4.1202 -0.1301 -7.1250 0.0000 -0.0000 -22.8626 33.3567 7.0121 -0.0000 0.0000 0.0000 75.3457 9.9515 35.1172 -58.8036 55.9826 -33.3475 0.0000 0.0000 11.1468 -36.5736 -25.5074 17.7189 7.1250 -0.0000 -0.0000 -8.2915 -60.5049 3.1473
-0.1107 17.0529 -0.8159 -62.7137 -85.8263 65.5754 0.0000 0.0000 0.0000 -21.7039 -11.4583 -24.4285 7.3573 15.6256 50.2132 0.6105 -13.8829 -15.8811 0.3033 -3.5411 -9.7892 0.0000 0.0000 0.0000 20.4941 8.3224 -30.8289 -8.8140 -16.6865 55.4447 -1.2768 8.7381 -20.2455 -1.5532 7.8658 -22.3074 8.0429 3.1177 16.7913 1.3652 5.3540 3.6483 -4.1436 2.4503 -4.8434 -1.5358 -3.5681 3.7784 -0.4526 -4.8405 4.2555 0.1323 -2.4618 0.7022 -0.0000 0.0000 0.0000 -45.8442 23.5303 -34.3385 164.9187 -24.2592 -116.7407 -0.0000 0.0000 -14.3903 -1.8784 5.3735 -0.1760 -7.1250 0.0000 -0.0000 -23.2427 34.5068 6.4393 -0.0000 0.0000 0.0000 76.2105 9.5682 34.3429 -56.8777 55.4189 -31.7565 0.0000 0.0000 10.9449 -36.5991 -25.6917 17.8463 7.1250 -0.0000 -0.0000 -8.2993 -60.7213 3.1930
